The Call Of The Wild (1972) DVDRip.Xvid.AC3 - psix



A house dog is abducted and brought to the north as a sled dog.



Director:  Ken Annakin
Writers:  Federico De Urrutia, Hubert Frank
Stars:  Charlton Heston, Michèle Mercier and Raimund Harmstorf 


 
http://www.imdb.com/title/tt0069197/




The Call Of The Wild (1972) DVDRip.Xvid.AC3 - psix.avi
Format                         : AVI
Format/Info                    : Audio Video Interleave
File size                      : 1.42 GiB
Duration                       : 1h 40mn
Overall bit rate               : 2 034 Kbps

Video
ID                             : 0
Format                         : MPEG-4 Visual
Format profile                 : Advanced Simple@L5
Format settings, BVOP          : 1
Format settings, QPel          : No
Format settings, GMC           : No warppoints
Format settings, Matrix        : Default (H.263)
Muxing mode                    : Packed bitstream
Codec ID                       : XVID
Codec ID/Hint                  : XviD
Duration                       : 1h 40mn
Bit rate                       : 1 771 Kbps
Width                          : 640 pixels
Height                         : 480 pixels
Display aspect ratio           : 4:3
Frame rate                     : 23.976 fps
Color space                    : YUV
Chroma subsampling             : 4:2:0
Bit depth                      : 8 bits
Scan type                      : Progressive
Compression mode               : Lossy
Bits/(Pixel*Frame)             : 0.240
Stream size                    : 1.24 GiB (87%)
Writing library                : XviD 1.2.1 (UTC 2008-12-04)

Audio
ID                             : 1
Format                         : AC-3
Format/Info                    : Audio Coding 3
Mode extension                 : CM (complete main)
Format settings, Endianness    : Big
Codec ID                       : 2000
Duration                       : 1h 40mn
Bit rate mode                  : Constant
Bit rate                       : 256 Kbps
Channel(s)                     : 2 channels
Channel positions              : Front: L R
Sampling rate                  : 48.0 KHz
Bit depth                      : 16 bits
Compression mode               : Lossy
Stream size                    : 183 MiB (13%)
Alignment                      : Aligned on interleaves
Interleave, duration           : 64 ms (1.53 video frames)
Interleave, preload duration   : 192 ms


Subs...No


 
http://s14.postimage.org/8f0ed7vmp/image.jpg 
http://s14.postimage.org/5yykzddk1/image.jpg 
http://s14.postimage.org/4xyca8wkh/image.jpg



keep seeding